<svg xmlns="http://www.w3.org/2000/svg" viewBox="0 0 800 450" role="img" aria-label="University chatbot placeholder">
  <defs>
    <linearGradient id="yzBg" x1="0" y1="0" x2="1" y2="1">
      <stop offset="0%" stop-color="#4338ca"/>
      <stop offset="100%" stop-color="#6d28d9"/>
    </linearGradient>
  </defs>
  <rect width="800" height="450" fill="url(#yzBg)"/>
  <g opacity="0.14" fill="#ffffff">
    <circle cx="90" cy="70" r="120"/>
    <circle cx="730" cy="400" r="150"/>
  </g>
  <g>
    <rect x="180" y="120" width="250" height="74" rx="24" fill="#ffffff" fill-opacity="0.95"/>
    <rect x="210" y="146" width="150" height="10" rx="5" fill="#6d28d9" fill-opacity="0.35"/>
    <rect x="210" y="166" width="96" height="10" rx="5" fill="#6d28d9" fill-opacity="0.2"/>
  </g>
  <g>
    <rect x="370" y="224" width="250" height="74" rx="24" fill="#c7d2fe" fill-opacity="0.95"/>
    <rect x="400" y="250" width="160" height="10" rx="5" fill="#3730a3" fill-opacity="0.45"/>
    <rect x="400" y="270" width="110" height="10" rx="5" fill="#3730a3" fill-opacity="0.28"/>
  </g>
  <g fill="#ffffff" fill-opacity="0.9">
    <path d="M400 330l90 34-90 34-90-34z"/>
    <path d="M462 366v30c0 10-28 18-62 18s-62-8-62-18v-30l62 24z" fill-opacity="0.6"/>
  </g>
  <text x="400" y="62" text-anchor="middle" font-family="system-ui,-apple-system,Segoe UI,sans-serif" font-size="26" font-weight="600" fill="#ffffff" fill-opacity="0.92">University Chatbot</text>
</svg>
