<svg xmlns="http://www.w3.org/2000/svg" viewBox="0 0 800 450" role="img" aria-label="School management system placeholder">
  <defs>
    <linearGradient id="scBg" x1="0" y1="0" x2="1" y2="1">
      <stop offset="0%" stop-color="#1d4ed8"/>
      <stop offset="100%" stop-color="#1e3a8a"/>
    </linearGradient>
  </defs>
  <rect width="800" height="450" fill="url(#scBg)"/>
  <g opacity="0.12" fill="#ffffff">
    <rect x="60" y="60" width="140" height="140" rx="16"/>
    <rect x="600" y="250" width="160" height="160" rx="16"/>
  </g>
  <g fill="#ffffff" fill-opacity="0.95">
    <path d="M400 128l150 62-150 62-150-62z"/>
    <path d="M290 238v72c0 24 49 44 110 44s110-20 110-44v-72l-110 46z" fill-opacity="0.55"/>
    <rect x="556" y="196" width="8" height="86" rx="4" fill-opacity="0.7"/>
    <circle cx="560" cy="292" r="13" fill-opacity="0.7"/>
  </g>
  <g fill="#bfdbfe" fill-opacity="0.85">
    <rect x="250" y="376" width="90" height="10" rx="5"/>
    <rect x="356" y="376" width="132" height="10" rx="5"/>
    <rect x="504" y="376" width="46" height="10" rx="5"/>
  </g>
  <text x="400" y="80" text-anchor="middle" font-family="system-ui,-apple-system,Segoe UI,sans-serif" font-size="26" font-weight="600" fill="#ffffff" fill-opacity="0.92">School Management</text>
</svg>
